<svg width="1440" height="3516" fill="none" xmlns="http://www.w3.org/2000/svg"><mask id="a" maskUnits="userSpaceOnUse" x="-1" y="0" width="1441" height="879"><path fill="#fff" d="M-1 0h1441v879H-1z"/></mask><g mask="url(#a)"><circle opacity=".4" r="499.659" transform="scale(1.36123 .38347) rotate(45 -654.05 1325.09)" fill="url(#paint0_linear)"/><circle opacity=".4" r="591.906" transform="scale(1.36123 .38347) rotate(45 -1782.796 1310.417)" fill="url(#paint1_linear)"/></g><g filter="url(#filter0_b)"><path fill="#fff" fill-opacity=".1" d="M-1 0h1441v879H-1z"/></g><mask id="b" maskUnits="userSpaceOnUse" x="0" y="879" width="1439" height="880"><path transform="matrix(1 0 0 -1 0 1758)" fill="#fff" d="M0 0h1439v879H0z"/></mask><g mask="url(#b)"><circle opacity=".4" r="499.017" transform="scale(1.3611 -.38396) rotate(45 4873.945 -964.998)" fill="url(#paint2_linear)"/><circle opacity=".4" r="591.145" transform="scale(1.3611 -.38396) rotate(45 3746.674 -979.657)" fill="url(#paint3_linear)"/></g><g filter="url(#filter1_b)"><path fill="#fff" fill-opacity=".1" d="M0 1758h1439V879H0z"/></g><mask id="c" maskUnits="userSpaceOnUse" x="-1" y="1758" width="1441" height="879"><path fill="#fff" d="M-1 1758h1441v879H-1z"/></mask><g mask="url(#c)"><circle opacity=".4" r="499.659" transform="scale(1.36123 .38347) rotate(45 -6187.965 3617.313)" fill="url(#paint4_linear)"/><circle opacity=".4" r="591.906" transform="scale(1.36123 .38347) rotate(45 -7316.689 3602.63)" fill="url(#paint5_linear)"/></g><g filter="url(#filter2_b)"><path fill="#fff" fill-opacity=".1" d="M-1 1758h1441v879H-1z"/></g><mask id="d" maskUnits="userSpaceOnUse" x="0" y="2637" width="1439" height="880"><path transform="matrix(1 0 0 -1 0 3516)" fill="#fff" d="M0 0h1439v879H0z"/></mask><g mask="url(#d)"><circle opacity=".4" r="499.017" transform="scale(1.3611 -.38396) rotate(45 10400.74 -3254.272)" fill="url(#paint6_linear)"/><circle opacity=".4" r="591.145" transform="scale(1.3611 -.38396) rotate(45 9273.47 -3268.93)" fill="url(#paint7_linear)"/></g><g filter="url(#filter3_b)"><path fill="#fff" fill-opacity=".1" d="M0 3516h1439v-879H0z"/></g><defs><linearGradient id="paint0_linear" x1="499.659" y1="0" x2="499.659" y2="999.319" gradientUnits="userSpaceOnUse"><stop stop-color="#FF8001" stop-opacity="0"/><stop offset="1" stop-color="#fff"/></linearGradient><linearGradient id="paint1_linear" x1="591.906" y1="0" x2="591.906" y2="1183.81" gradientUnits="userSpaceOnUse"><stop stop-color="#FF8001" stop-opacity=".35"/><stop offset="1" stop-color="#FF8001" stop-opacity="0"/></linearGradient><linearGradient id="paint2_linear" x1="499.017" y1="0" x2="499.017" y2="998.034" gradientUnits="userSpaceOnUse"><stop stop-color="#FF8001" stop-opacity="0"/><stop offset="1" stop-color="#fff"/></linearGradient><linearGradient id="paint3_linear" x1="591.145" y1="0" x2="591.145" y2="1182.29" gradientUnits="userSpaceOnUse"><stop stop-color="#FF8001" stop-opacity=".35"/><stop offset="1" stop-color="#FF8001" stop-opacity="0"/></linearGradient><linearGradient id="paint4_linear" x1="499.659" y1="0" x2="499.659" y2="999.319" gradientUnits="userSpaceOnUse"><stop stop-color="#FF8001" stop-opacity="0"/><stop offset="1" stop-color="#fff"/></linearGradient><linearGradient id="paint5_linear" x1="591.906" y1="0" x2="591.906" y2="1183.81" gradientUnits="userSpaceOnUse"><stop stop-color="#FF8001" stop-opacity=".35"/><stop offset="1" stop-color="#FF8001" stop-opacity="0"/></linearGradient><linearGradient id="paint6_linear" x1="499.017" y1="0" x2="499.017" y2="998.034" gradientUnits="userSpaceOnUse"><stop stop-color="#FF8001" stop-opacity="0"/><stop offset="1" stop-color="#fff"/></linearGradient><linearGradient id="paint7_linear" x1="591.145" y1="0" x2="591.145" y2="1182.29" gradientUnits="userSpaceOnUse"><stop stop-color="#FF8001" stop-opacity=".35"/><stop offset="1" stop-color="#FF8001" stop-opacity="0"/></linearGradient><filter id="filter0_b" x="-101" y="-100" width="1641" height="1079" filterUnits="userSpaceOnUse" color-interpolation-filters="sRGB"><feFlood flood-opacity="0" result="BackgroundImageFix"/><feGaussianBlur in="BackgroundImage" stdDeviation="50"/><feComposite in2="SourceAlpha" operator="in" result="effect1_backgroundBlur"/><feBlend in="SourceGraphic" in2="effect1_backgroundBlur" result="shape"/></filter><filter id="filter1_b" x="-100" y="779" width="1639" height="1079" filterUnits="userSpaceOnUse" color-interpolation-filters="sRGB"><feFlood flood-opacity="0" result="BackgroundImageFix"/><feGaussianBlur in="BackgroundImage" stdDeviation="50"/><feComposite in2="SourceAlpha" operator="in" result="effect1_backgroundBlur"/><feBlend in="SourceGraphic" in2="effect1_backgroundBlur" result="shape"/></filter><filter id="filter2_b" x="-101" y="1658" width="1641" height="1079" filterUnits="userSpaceOnUse" color-interpolation-filters="sRGB"><feFlood flood-opacity="0" result="BackgroundImageFix"/><feGaussianBlur in="BackgroundImage" stdDeviation="50"/><feComposite in2="SourceAlpha" operator="in" result="effect1_backgroundBlur"/><feBlend in="SourceGraphic" in2="effect1_backgroundBlur" result="shape"/></filter><filter id="filter3_b" x="-100" y="2537" width="1639" height="1079" filterUnits="userSpaceOnUse" color-interpolation-filters="sRGB"><feFlood flood-opacity="0" result="BackgroundImageFix"/><feGaussianBlur in="BackgroundImage" stdDeviation="50"/><feComposite in2="SourceAlpha" operator="in" result="effect1_backgroundBlur"/><feBlend in="SourceGraphic" in2="effect1_backgroundBlur" result="shape"/></filter></defs></svg>