<svg width="160" height="25" fill="none" xmlns="http://www.w3.org/2000/svg"><path d="M3.806 10c0 .938.159 1.802.476 2.594.317.77.74 1.448 1.269 2.031.528.563 1.142 1 1.84 1.313a5.67 5.67 0 002.283.468c.994 0 1.819-.177 2.474-.531.656-.375 1.174-.792 1.554-1.25a6.464 6.464 0 001.047-1.813H9.516v-3.28h9.356v10.312h-2.696l-.792-1.875c-.466.396-.984.74-1.555 1.031-.486.25-1.078.48-1.776.688-.698.208-1.49.312-2.379.312a9.524 9.524 0 01-3.743-.75 10.114 10.114 0 01-3.076-2.125A11.027 11.027 0 01.76 13.937C.254 12.73 0 11.418 0 10c0-1.396.254-2.698.761-3.906.529-1.23 1.227-2.292 2.094-3.188A9.432 9.432 0 015.93.781 9.196 9.196 0 019.674 0c1.142 0 2.2.198 3.172.594a8.87 8.87 0 012.633 1.531 8.925 8.925 0 011.934 2.219c.53.854.91 1.75 1.142 2.687h-3.964a4.267 4.267 0 00-.603-1.25 4.3 4.3 0 00-1.047-1.093 4.468 4.468 0 00-1.427-.782 5.157 5.157 0 00-1.84-.312c-.803 0-1.565.156-2.284.469a5.491 5.491 0 00-1.84 1.343 6.41 6.41 0 00-1.268 2.032c-.317.77-.476 1.625-.476 2.562zm22.669-6.25v4.844h7.771v3.594h-7.771v7.656h-3.806V.156H35.99V3.75h-9.516zM40.914 10c0 .938.159 1.802.476 2.594a6.91 6.91 0 001.269 2.031c.529.563 1.142 1 1.84 1.313a5.67 5.67 0 002.283.468c.677 0 1.29-.093 1.84-.281a6.04 6.04 0 001.459-.781 4.812 4.812 0 001.078-1.094 5.87 5.87 0 00.698-1.281h3.965a9.373 9.373 0 01-1.142 2.687 9.133 9.133 0 01-1.966 2.25 9.757 9.757 0 01-2.665 1.532c-.993.375-2.082.562-3.267.562a9.524 9.524 0 01-3.742-.75 10.114 10.114 0 01-3.077-2.125 11.03 11.03 0 01-2.094-3.188c-.507-1.208-.76-2.52-.76-3.937 0-1.396.253-2.698.76-3.906.53-1.23 1.227-2.292 2.094-3.188A9.432 9.432 0 0143.039.781 9.196 9.196 0 0146.782 0c1.142 0 2.2.198 3.172.594a8.87 8.87 0 012.633 1.531 8.924 8.924 0 011.935 2.219c.528.854.909 1.75 1.142 2.687h-3.965a4.267 4.267 0 00-.603-1.25 4.302 4.302 0 00-1.047-1.093 4.47 4.47 0 00-1.427-.782 5.157 5.157 0 00-1.84-.312c-.803 0-1.564.156-2.283.469a5.491 5.491 0 00-1.84 1.343 6.408 6.408 0 00-1.269 2.032c-.317.77-.476 1.625-.476 2.562zm19.976 2.656c0 1.188.349 2.136 1.046 2.844.698.708 1.565 1.063 2.601 1.063s1.903-.355 2.601-1.063 1.047-1.656 1.047-2.844c0-1.187-.349-2.135-1.047-2.844-.698-.708-1.565-1.062-2.6-1.062-1.037 0-1.904.354-2.602 1.063-.697.708-1.046 1.656-1.046 2.843zm10.942 0c0 1.021-.2 1.98-.602 2.875a7.308 7.308 0 01-1.586 2.313 7.486 7.486 0 01-2.316 1.593 6.955 6.955 0 01-2.79.563 7.182 7.182 0 01-2.824-.563 8.02 8.02 0 01-2.315-1.593 8.076 8.076 0 01-1.586-2.313 7.275 7.275 0 01-.571-2.875c0-1.02.19-1.969.57-2.844A7.947 7.947 0 0159.4 7.47a7.535 7.535 0 012.315-1.563 6.856 6.856 0 012.823-.593 6.64 6.64 0 012.791.593c.889.375 1.66.896 2.316 1.563a7.214 7.214 0 011.586 2.343c.402.876.602 1.823.602 2.844zm9.501-7.343c.74 0 1.375.104 1.903.312.529.188.962.396 1.3.625.381.27.688.583.92.938.339-.355.73-.667 1.174-.938.38-.23.835-.438 1.364-.625a4.718 4.718 0 011.745-.313c1.585 0 2.854.5 3.806 1.5.951 1 1.427 2.48 1.427 4.438v8.594h-3.647v-8.282c0-.874-.244-1.562-.73-2.062-.465-.5-1.015-.75-1.65-.75-.634 0-1.194.25-1.68.75-.466.5-.698 1.188-.698 2.063v8.28h-3.648v-8.28c0-.876-.243-1.563-.73-2.063-.465-.5-1.014-.75-1.649-.75-.634 0-1.195.25-1.68.75-.466.5-.699 1.188-.699 2.063v8.28h-3.647V5.47h2.696l.634 1.406c.296-.292.624-.552.983-.781a6.43 6.43 0 011.079-.532c.423-.166.898-.25 1.427-.25zm24.423 0c.91 0 1.777.187 2.601.562a6.249 6.249 0 012.157 1.531 6.95 6.95 0 011.491 2.313c.381.896.571 1.875.571 2.937 0 1.063-.19 2.042-.571 2.938a7.31 7.31 0 01-1.491 2.344 6.854 6.854 0 01-2.157 1.53 6.52 6.52 0 01-2.601.532c-.613 0-1.152-.073-1.617-.219a9.129 9.129 0 01-1.174-.468 5.196 5.196 0 01-1.015-.72v6.25h-3.647V5.47h2.696l.634 1.406a5.494 5.494 0 011.11-.781 8.7 8.7 0 011.301-.532 5.468 5.468 0 011.712-.25zm-4.123 7.343c0 1.188.349 2.136 1.047 2.844.698.708 1.564 1.063 2.601 1.063 1.036 0 1.903-.355 2.601-1.063.697-.708 1.046-1.656 1.046-2.844 0-1.187-.349-2.135-1.046-2.844-.698-.708-1.565-1.062-2.601-1.062-1.037 0-1.903.354-2.601 1.063-.698.708-1.047 1.656-1.047 2.843zm19.67-7.343c.825 0 1.586.145 2.284.437a5.23 5.23 0 011.808 1.156 5.15 5.15 0 011.174 1.782 5.63 5.63 0 01.444 2.25v8.906h-2.696l-.635-1.407a7 7 0 01-1.11.782 6.89 6.89 0 01-1.3.562 6.207 6.207 0 01-1.713.219c-1.586 0-2.802-.375-3.648-1.125-.846-.77-1.268-1.75-1.268-2.938 0-.708.137-1.354.412-1.937.296-.604.782-1.115 1.459-1.531.677-.438 1.565-.771 2.664-1 1.121-.25 2.517-.375 4.187-.375 0-.792-.222-1.406-.666-1.844-.423-.438-.994-.656-1.713-.656-.486 0-.877.083-1.173.25a2.941 2.941 0 00-.666.531c-.191.23-.318.49-.381.781h-3.648a5.705 5.705 0 01.571-1.875 5.192 5.192 0 011.269-1.531 5.988 5.988 0 011.871-1.031c.74-.271 1.565-.407 2.474-.407zm-1.11 11.875c.952 0 1.713-.271 2.284-.813.592-.563.888-1.281.888-2.156v-.625c-1.078 0-1.945.052-2.601.156-.655.083-1.173.219-1.554.406-.359.167-.603.375-.73.625-.126.25-.19.531-.19.844 0 .396.18.76.539 1.094.36.312.815.468 1.364.468zm17.592-11.875c.867 0 1.66.145 2.379.437a4.79 4.79 0 011.839 1.219c.529.52.931 1.156 1.206 1.906.296.75.444 1.594.444 2.531v8.438h-3.648v-7.969c0-.938-.286-1.688-.856-2.25-.55-.583-1.269-.875-2.157-.875-.888 0-1.618.292-2.189.875-.55.563-.825 1.313-.825 2.25v7.969h-3.647V5.469h2.696l.634 1.406a7.64 7.64 0 011.174-.781 9.17 9.17 0 011.269-.532 5.358 5.358 0 011.681-.25zm7.624.156h3.807l3.647 9.375 3.331-9.375H160c-1.036 2.625-1.977 5-2.823 7.125-.359.916-.719 1.812-1.078 2.687-.339.875-.645 1.677-.92 2.406-.275.709-.508 1.303-.698 1.782-.19.479-.307.76-.349.843a15.93 15.93 0 01-1.078 2.157c-.339.604-.709 1.093-1.111 1.468a3.757 3.757 0 01-1.3.813c-.465.167-.994.25-1.586.25-.169 0-.338-.01-.507-.031-.148 0-.275-.01-.381-.032a1.695 1.695 0 01-.381-.093v-2.969c.804 0 1.417-.177 1.84-.531A3.412 3.412 0 00150.643 20l.317-.781-5.551-13.75z" fill="#000"/></svg>