<svg width="176" height="176" fill="none" xmlns="http://www.w3.org/2000/svg"><path d="M174.209 64.133c-6.149-18.928-26.549-29.323-45.472-23.174-2.5.812-5.03 1.936-7.531 3.328.551-2.809.837-5.564.837-8.193C122.043 16 108.16 0 88.362 0 68.534 0 53.957 16.035 53.957 36.094c0 2.629.286 5.384.837 8.193-2.5-1.392-5.031-2.516-7.531-3.328C28.34 34.809 7.94 45.205 1.79 64.133c-6.237 19.198 4.374 40.577 23.17 46.686 2.5.813 5.207 1.391 8.048 1.735-2.097 1.949-3.947 4.01-5.492 6.136-11.696 16.102-8.114 38.719 7.984 50.417 16.09 11.693 36.989 8.168 48.723-7.985 1.545-2.127 2.931-4.524 4.137-7.121 1.206 2.597 2.593 4.994 4.138 7.121 11.75 16.176 31.944 19.653 48 7.985 16.098-11.699 19.679-34.316 7.983-50.417-1.544-2.127-3.395-4.187-5.491-6.136 2.84-.344 5.55-.923 8.049-1.735 18.795-6.108 29.406-27.488 23.169-46.686z" fill="url(#paint0_linear)"/><defs><linearGradient id="paint0_linear" x1="1.369" y1="88.521" x2="173.024" y2="87.858" gradientUnits="userSpaceOnUse"><stop stop-color="#FAAD2A"/><stop offset="1" stop-color="#EB5A2F"/></linearGradient></defs></svg>