<svg width="177" height="176" fill="none" xmlns="http://www.w3.org/2000/svg"><path d="M162.655 75.835a69.947 69.947 0 01-3.515 5.118 60.044 60.044 0 01-6.242 7.048 60.044 60.044 0 016.242 7.048 70.284 70.284 0 013.515 5.118c8.23-6.025 13.347-12.166 13.347-12.166s-5.117-6.142-13.347-12.166z" fill="url(#paint0_linear)"/><path d="M135.861 146.572c-5.489-.195-10.639-.984-15.414-2.365a60.186 60.186 0 01-2.982 8.924 69.887 69.887 0 01-2.672 5.607c9.332 4.114 17.206 5.473 17.206 5.473s2.76-7.501 3.862-17.639z" fill="url(#paint1_linear)"/><path d="M16.862 95.048A60.063 60.063 0 0123.104 88a60.037 60.037 0 01-6.242-7.048 69.771 69.771 0 01-3.515-5.118C5.117 81.859 0 88 0 88s5.117 6.141 13.347 12.166a69.726 69.726 0 013.515-5.118z" fill="url(#paint2_linear)"/><path d="M114.793 17.263a69.502 69.502 0 012.671 5.606 59.95 59.95 0 012.982 8.925c4.775-1.382 9.926-2.17 15.415-2.365-1.103-10.139-3.862-17.639-3.862-17.639s-7.874 1.359-17.206 5.473z" fill="url(#paint3_linear)"/><path d="M40.14 29.429c5.49.195 10.64.983 15.416 2.365a60.044 60.044 0 012.982-8.925 69.716 69.716 0 012.671-5.606c-9.332-4.114-17.206-5.473-17.206-5.473s-2.76 7.5-3.862 17.639z" fill="url(#paint4_linear)"/><path d="M61.21 158.738a69.745 69.745 0 01-2.672-5.607 60.047 60.047 0 01-2.982-8.924c-4.776 1.381-9.926 2.17-15.415 2.365 1.103 10.138 3.862 17.639 3.862 17.639s7.875-1.359 17.206-5.473z" fill="url(#paint5_linear)"/><path d="M88.002 176s19.631-16.349 23.126-37.631l-16.952-29.362c-2.02.593-4.085.883-6.138.883-2.106 0-4.197-.304-6.205-.894l-16.958 29.373C68.371 159.651 88.002 176 88.002 176z" fill="url(#paint6_linear)"/><path d="M88.002 0S68.37 16.35 64.875 37.632l16.954 29.365a21.891 21.891 0 0112.338.012l16.961-29.377C107.633 16.35 88.002 0 88.002 0z" fill="url(#paint7_linear)"/><path d="M93.789 98.031c5.53-3.193 7.432-10.29 4.24-15.821-2.143-3.711-6.045-5.79-10.05-5.79a11.51 11.51 0 00-5.772 1.55c-5.53 3.193-7.433 10.291-4.24 15.822 3.193 5.53 10.29 7.432 15.822 4.24z" fill="url(#paint8_linear)"/><path d="M143.186 93.156h-33.922a21.881 21.881 0 01-6.159 10.691l16.955 29.367c6.079 2.293 12.502 3.097 18.511 3.097 13.937 0 25.642-4.311 25.642-4.311s-4.344-25.175-21.027-38.844z" fill="url(#paint9_linear)"/><path d="M32.815 82.844h33.922a21.894 21.894 0 016.159-10.691L55.941 42.786c-6.079-2.293-12.502-3.097-18.51-3.097-13.937 0-25.642 4.31-25.642 4.31s4.343 25.177 21.026 38.845z" fill="url(#paint10_linear)"/><path d="M37.431 136.311c6.01 0 12.432-.804 18.51-3.097l16.954-29.365a21.815 21.815 0 01-6.17-10.693h-33.91C16.134 106.824 11.79 132 11.79 132s11.707 4.311 25.642 4.311z" fill="url(#paint11_linear)"/><path d="M138.567 39.69c-6.009 0-12.431.803-18.51 3.097l-16.955 29.367a21.837 21.837 0 016.172 10.69h33.909C159.866 69.176 164.209 44 164.209 44s-11.707-4.31-25.642-4.31z" fill="url(#paint12_linear)"/><defs><linearGradient id="paint0_linear" x1="152.898" y1="88.001" x2="176.002" y2="88.001" gradientUnits="userSpaceOnUse"><stop stop-color="#24C05E"/><stop offset="1" stop-color="#1EA44F"/></linearGradient><linearGradient id="paint1_linear" x1="114.793" y1="154.209" x2="135.861" y2="154.209" gradientUnits="userSpaceOnUse"><stop stop-color="#24C05E"/><stop offset="1" stop-color="#1EA44F"/></linearGradient><linearGradient id="paint2_linear" x1="0" y1="88" x2="23.104" y2="88" gradientUnits="userSpaceOnUse"><stop stop-color="#24C05E"/><stop offset="1" stop-color="#1EA44F"/></linearGradient><linearGradient id="paint3_linear" x1="114.793" y1="21.792" x2="135.861" y2="21.792" gradientUnits="userSpaceOnUse"><stop stop-color="#24C05E"/><stop offset="1" stop-color="#1EA44F"/></linearGradient><linearGradient id="paint4_linear" x1="40.141" y1="21.792" x2="61.209" y2="21.792" gradientUnits="userSpaceOnUse"><stop stop-color="#24C05E"/><stop offset="1" stop-color="#1EA44F"/></linearGradient><linearGradient id="paint5_linear" x1="40.141" y1="154.209" x2="61.209" y2="154.209" gradientUnits="userSpaceOnUse"><stop stop-color="#24C05E"/><stop offset="1" stop-color="#1EA44F"/></linearGradient><linearGradient id="paint6_linear" x1="64.875" y1="142.498" x2="111.128" y2="142.498" gradientUnits="userSpaceOnUse"><stop stop-color="#24C05E"/><stop offset="1" stop-color="#1EA44F"/></linearGradient><linearGradient id="paint7_linear" x1="64.875" y1="33.504" x2="111.128" y2="33.504" gradientUnits="userSpaceOnUse"><stop stop-color="#24C05E"/><stop offset="1" stop-color="#1EA44F"/></linearGradient><linearGradient id="paint8_linear" x1="76.418" y1="88.001" x2="99.578" y2="88.001" gradientUnits="userSpaceOnUse"><stop stop-color="#24C05E"/><stop offset="1" stop-color="#1EA44F"/></linearGradient><linearGradient id="paint9_linear" x1="103.105" y1="114.734" x2="164.213" y2="114.734" gradientUnits="userSpaceOnUse"><stop stop-color="#24C05E"/><stop offset="1" stop-color="#1EA44F"/></linearGradient><linearGradient id="paint10_linear" x1="11.789" y1="61.266" x2="72.896" y2="61.266" gradientUnits="userSpaceOnUse"><stop stop-color="#24C05E"/><stop offset="1" stop-color="#1EA44F"/></linearGradient><linearGradient id="paint11_linear" x1="11.789" y1="114.734" x2="72.895" y2="114.734" gradientUnits="userSpaceOnUse"><stop stop-color="#24C05E"/><stop offset="1" stop-color="#1EA44F"/></linearGradient><linearGradient id="paint12_linear" x1="103.102" y1="61.267" x2="164.209" y2="61.267" gradientUnits="userSpaceOnUse"><stop stop-color="#24C05E"/><stop offset="1" stop-color="#1EA44F"/></linearGradient></defs></svg>