<svg width="176" height="176" fill="none" xmlns="http://www.w3.org/2000/svg"><path d="M157.652 87.973l15.807-15.47c4.712-4.462 2.515-12.39-3.666-13.867l-21.536-5.497 6.071-21.318c1.716-6.131-4.066-11.915-10.196-10.199l-21.31 6.073-5.495-21.543c-1.454-6.084-9.47-8.31-13.861-3.667L88 18.415 72.535 2.485c-4.341-4.59-12.391-2.487-13.862 3.667L53.18 27.695l-21.31-6.073c-6.132-1.716-11.912 4.07-10.197 10.2l6.071 21.317-21.536 5.497c-6.183 1.478-8.376 9.407-3.666 13.866l15.807 15.47-15.807 15.471c-4.712 4.461-2.515 12.388 3.666 13.866l21.536 5.497-6.071 21.317c-1.716 6.132 4.066 11.916 10.196 10.2l21.31-6.073 5.495 21.543c1.526 6.385 9.52 8.256 13.861 3.667L88 157.647l15.465 15.813c4.297 4.636 12.371 2.573 13.862-3.667l5.494-21.543 21.311 6.073c6.131 1.716 11.911-4.069 10.196-10.2l-6.071-21.317 21.536-5.497c6.183-1.479 8.376-9.407 3.666-13.866l-15.807-15.47z" fill="url(#paint0_linear)"/><defs><linearGradient id="paint0_linear" x1="1.369" y1="88.521" x2="173.024" y2="87.858" gradientUnits="userSpaceOnUse"><stop stop-color="#1887F9"/><stop offset="1" stop-color="#2E4AC3"/></linearGradient></defs></svg>